<svg width="21" height="21" viewBox="0 0 21 21" fill="none" xmlns="http://www.w3.org/2000/svg">
<path d="M19.9508 12.2502H18.9008V8.7504C18.8996 7.78432 18.1168 7.00152 17.1508 7.0004H11.551C10.5849 7.00152 9.80215 7.78432 9.80103 8.7504V12.2502H8.751C8.17151 12.2509 7.70177 12.7206 7.70113 13.3003V16.8001C7.70385 17.7211 8.42096 18.4818 9.34026 18.5389L8.83703 20.2999H5.56582C5.3984 19.4859 4.68241 18.9011 3.85123 18.9H3.15127V2.7865C3.15175 1.69177 3.99799 0.783533 5.08999 0.70599C6.182 0.628447 7.14824 1.40788 7.30348 2.49155L7.30957 2.53401C6.85793 2.72002 6.59566 3.19424 6.67833 3.67552L6.77382 4.24059L5.83802 5.84768C5.71226 6.0638 5.71129 6.33055 5.8353 6.54764C5.95946 6.76473 6.19001 6.89915 6.4401 6.90027C6.48015 6.90027 6.52021 6.8969 6.55962 6.89017L9.91734 6.3227C10.1851 6.27736 10.4025 6.08126 10.4752 5.81964C10.5478 5.55801 10.4625 5.27796 10.2564 5.10125L8.8444 3.89085L8.74892 3.32578C8.68115 2.93182 8.39501 2.61075 8.01146 2.49812L7.9964 2.39254C7.78957 0.944866 6.4989 -0.0966723 5.04033 0.00698487C3.58175 0.110642 2.4513 1.32425 2.4513 2.7865V18.9H1.75133V18.5501C1.75133 18.3567 1.59464 18.2 1.40127 18.2C1.20805 18.2 1.05137 18.3567 1.05137 18.5501V19.0483C0.414522 19.3266 0.00261684 19.955 0.00133514 20.65C0.00133514 20.8432 0.158023 20.9999 0.351399 20.9999H20.6508C20.844 20.9999 21.0007 20.8432 21.0007 20.65C21.0007 20.4566 20.844 20.2999 20.6508 20.2999H19.8647L19.3615 18.5389C20.2808 18.4818 20.9979 17.7211 21.0007 16.8001V13.3003C21 12.7206 20.5303 12.2509 19.9508 12.2502ZM9.80071 5.63251L6.44298 6.20014L7.36004 4.62526L8.41728 4.44662L9.80327 5.63187L9.80071 5.63251ZM8.1172 3.78735L7.42701 3.90398L7.36853 3.55889C7.33665 3.36839 7.46482 3.18799 7.65531 3.15547C7.67469 3.15227 7.69424 3.15067 7.71395 3.15067C7.88457 3.15099 8.0302 3.27403 8.05904 3.44225L8.1172 3.78735ZM11.551 7.70037H17.1508C17.7304 7.70101 18.2001 8.17075 18.2008 8.7504V12.3148C17.7825 12.462 17.5021 12.8566 17.5008 13.3003V14.0092C17.1996 13.7777 16.8307 13.6514 16.4508 13.6502H15.1958L15.9984 12.8477C16.1308 12.7104 16.1291 12.492 15.994 12.3571C15.859 12.222 15.6408 12.2201 15.5035 12.3528L14.701 13.1553V11.5503C14.701 11.3569 14.5441 11.2002 14.3509 11.2002C14.1577 11.2002 14.0008 11.3569 14.0008 11.5503V13.1553L13.1983 12.3528C13.061 12.2201 12.8428 12.222 12.7078 12.3571C12.5727 12.492 12.5709 12.7104 12.7034 12.8477L13.5059 13.6502H12.251C11.8711 13.6514 11.5022 13.7777 11.201 14.0092V13.3003C11.1997 12.8566 10.9193 12.462 10.501 12.3148V8.7504C10.5016 8.17075 10.9714 7.70101 11.551 7.70037ZM16.4508 14.3501C17.0304 14.3508 17.5002 14.8205 17.5008 15.4002V15.7501H11.201V15.4002C11.2016 14.8205 11.6713 14.3508 12.251 14.3501H16.4508ZM16.9478 18.5501L17.9478 20.2999H10.7541L11.754 18.5501H16.9478ZM17.5008 17.85H11.201V16.45H17.5008V17.85ZM8.40109 16.8001V13.3003C8.40125 13.107 8.55794 12.9505 8.751 12.9502H10.1511C10.3441 12.9505 10.5008 13.107 10.501 13.3003V17.85H9.45113C8.87148 17.8493 8.40174 17.3797 8.40109 16.8001ZM0.761381 20.2999C0.910058 19.8808 1.30642 19.6004 1.75133 19.6H3.85123C4.29598 19.6004 4.69251 19.8808 4.84118 20.2999H0.761381ZM9.56504 20.2999L10.0651 18.5501H10.948L9.9481 20.2999H9.56504ZM18.7537 20.2999L17.7538 18.5501H18.6367L19.1367 20.2999H18.7537ZM20.3007 16.8001C20.3 17.3797 19.8303 17.8493 19.2507 17.85H18.2008V13.3003C18.2009 13.107 18.3576 12.9505 18.5507 12.9502H19.9508C20.1438 12.9505 20.3004 13.107 20.3007 13.3003V16.8001Z" fill="black"/>
</svg>
